<svg width="120" height="126" viewBox="0 0 120 126" fill="none" xmlns="http://www.w3.org/2000/svg">
<path d="M23.0475 25.0968C23.0627 25.1204 23.3355 25.1287 23.5279 25.3758C23.6497 25.5341 24.0914 26.4088 24.1274 26.5879C24.3198 27.5682 23.4324 28.4026 23.4822 28.7414C23.5127 28.9483 23.7965 29.3176 23.8851 29.6022C24.6659 32.1291 25.4647 34.6463 26.3411 37.1413C26.7315 38.9477 24.288 38.1632 23.1818 38.2229L21.9399 33.9827C21.5758 33.9424 21.7212 33.9882 21.6617 34.1868C21.4692 34.8282 20.7092 37.7897 20.417 38.0771C20.2038 38.2868 18.5051 38.4687 18.1327 38.4298C16.5724 38.2701 17.4613 36.5332 17.752 35.5419C18.3113 33.6328 19.0105 31.5668 19.6598 29.68C19.8217 29.2121 20.2772 28.926 20.118 28.3887C20.0488 28.1555 19.6999 27.9972 19.6168 27.6348C19.4341 26.8392 19.5878 26.1423 20.0792 25.5189C20.2869 25.2551 20.6496 25.2245 20.6967 24.8885L20.5596 17.28C18.8291 16.4233 19.3552 14.9072 20.975 14.3379C28.2392 11.5194 35.4743 8.62732 42.7038 5.72274C46.6357 4.14271 51.1129 1.88375 55.0337 0.593909C55.6816 0.380092 56.6106 0.175994 57.282 0.277349C68.5999 4.69253 80.0783 8.77033 91.338 13.3299C91.8862 13.5521 93.7497 14.2477 93.9698 14.7155C94.3339 15.4889 93.9255 16.1609 93.2873 16.6038C92.2932 17.2938 89.4828 18.3324 88.2119 18.8725C86.2986 19.6847 83.7415 20.4067 81.975 21.3647C81.8656 21.4244 81.6787 21.4744 81.6095 21.5535C81.2066 22.0131 81.6053 25.0648 81.6178 25.8521C81.6635 28.6275 81.651 31.4224 81.4766 34.1868C82.0442 35.0087 82.8486 35.6766 83.4688 36.4929C85.5731 39.2642 87.0628 43.5822 87.6595 47.0075C88.169 49.9259 88.3587 53.1401 87.8423 56.0558C88.1593 56.3085 91.0403 53.9871 91.4432 53.6288C96.3054 49.3067 100.502 43.6391 103.327 37.7786C104.291 35.7821 105.858 31.1198 107.435 29.8188C109.513 28.1041 111.981 29.3689 113.063 31.5266C114.9 35.1892 114.068 40.232 113.454 44.1168C117.446 40.5416 119.204 44.6735 118.998 48.4972C118.76 52.9083 116.615 57.6803 114.147 61.2652L116.007 60.9125C120.154 61.6414 118.296 65.9386 116.986 68.4183C114.569 72.9973 109.95 77.2487 105.743 80.1907C99.7886 84.356 92.7736 86.8621 85.7614 88.6143C84.3701 98.0917 79.1881 106.386 71.366 111.804C72.6701 111.9 74.0061 111.911 75.3172 111.879C78.9195 111.79 82.9524 111.715 86.5243 111.455C90.5004 111.165 93.2457 108.566 95.8042 105.767C96.2458 105.284 98.2893 102.969 98.4319 102.564C98.6354 101.982 98.0788 101.446 97.8822 100.903C94.5333 91.6758 104.576 85.843 112.418 85.3571C114.628 85.2196 114.662 85.4876 114.561 87.6452C114.399 91.076 113.425 96.6019 111.235 99.3051C108.884 102.207 104.965 103.683 101.274 103.616C99.2542 106.207 97.1748 108.734 94.7645 110.972L106.183 109.088C108.08 109.334 107.45 111.441 106.009 111.836C104.307 112.302 101.757 112.537 99.9326 112.823C97.4835 113.207 95.0137 113.538 92.5494 113.818C92.4801 114.143 92.5895 114.042 92.7266 114.129C95.22 115.729 98.4983 116.798 101.181 118.142C101.994 118.549 104.987 120.008 105.224 120.753C105.461 121.499 105.074 122.288 104.395 122.578C103.852 122.808 103.657 122.607 103.16 122.406C101.134 121.588 98.011 119.93 96.0548 118.84C93.8175 117.593 89.7929 114.425 87.4588 114.132C85.4416 113.878 82.7932 114.308 80.7165 114.379C77.8978 114.475 75.0874 114.472 72.2659 114.651L71.9391 114.879V116.506L72.27 116.74L84.8629 116.041C89.1076 117.974 95.9385 118.117 98.9732 121.884C99.2473 122.224 100.511 124.036 100.551 124.333C100.726 125.644 99.0604 126.522 97.9501 125.27C96.5573 123.698 96.6224 122.989 94.4405 121.986C92.7972 121.231 85.8085 118.942 84.1762 118.812C80.243 118.5 75.9568 119.544 71.9918 119.515C70.8164 120.43 70.6738 121.421 69.0193 121.809C67.4771 122.17 66.7793 121.544 65.6219 121.52C64.6944 121.5 63.8941 122.024 62.6108 121.835C61.2582 121.637 60.8414 120.915 60.0565 119.954C59.0057 119.779 57.9092 120.037 56.9041 120.072C55.2538 120.129 53.4084 120.059 51.7789 120.208C50.1494 120.356 49.6344 121.805 47.8927 121.877C46.9236 121.917 45.7994 121.188 45.2692 121.188C45.0463 121.188 44.3652 121.595 43.9831 121.692C42.935 121.961 42.0725 121.966 41.0923 121.48C40.623 121.246 40.1038 120.604 39.7037 120.512C39.1043 120.376 37.6506 120.456 36.9584 120.477C32.5531 120.608 27.954 121.166 23.5334 121.453C17.7049 121.832 12.0689 122.054 6.24588 122.721C4.85036 122.881 3.12119 123.339 1.79351 123.398C-0.612659 123.505 -0.377303 120.567 1.95964 120.644C14.3393 118.69 26.8907 118.388 39.3867 117.567L39.5196 115.351L23.8048 114.796C17.2481 114.44 10.7024 113.791 4.14983 113.403C3.2624 113.35 2.23099 113.503 1.37956 113.405C-0.355152 113.203 0.101715 110.946 2.20745 110.758C5.01649 110.508 8.26024 111.126 11.0748 111.318C16.1903 111.668 21.3252 111.973 26.4352 112.158C29.643 112.273 32.8577 112.286 36.0627 112.429C33.7492 110.475 31.3528 108.563 29.6153 106.046C29.409 105.997 26.8201 108.377 26.3577 108.737C25.084 109.724 22.0493 112.381 20.9016 110.071C19.8217 107.897 18.9758 103.03 18.638 100.539C17.1152 89.3196 18.0787 76.878 25.8205 68.074C26.9142 66.83 28.307 65.7859 29.2803 64.4627C23.9557 56.1488 24.8044 43.7655 30.8682 36.0653C31.8387 34.8338 32.6209 34.6922 32.7441 32.9483C33.0017 29.3217 32.5822 25.3981 32.5323 21.7646L23.3299 18.2158L23.0489 18.3643C23.2261 19.2737 22.8163 24.7344 23.0489 25.0982L23.0475 25.0968ZM88.1178 15.2404L56.6189 3.35548C47.4082 7.42078 37.8652 10.7169 28.5894 14.6197C27.828 14.9405 26.8699 15.2904 26.1583 15.6527C26.0282 15.7194 25.8302 15.7319 25.8164 15.9332L57.163 27.7292C61.9656 26.1645 66.5094 23.9347 71.1915 22.0783C76.7542 19.8749 82.4637 17.9978 87.9226 15.5319C88.0873 15.4584 88.1718 15.5972 88.1178 15.2418V15.2404ZM35.7844 23.153V31.1364L36.0183 31.3183C43.5013 32.3513 51.2818 34.6116 57.1754 39.4905C59.8073 37.4857 62.5651 35.6724 65.6538 34.4339C69.7434 32.7928 74.2013 32.1513 78.5568 31.6168L78.4239 22.599C73.5506 24.3026 68.8698 26.5199 64.0603 28.3957C62.3449 29.0649 60.2655 29.9812 58.5585 30.5144C57.3222 30.9004 57.0107 30.8754 55.7854 30.5144C50.2089 28.8719 44.307 26.1145 38.7609 24.1235C38.4093 23.9971 35.8896 23.0405 35.7816 23.1544L35.7844 23.153ZM115.531 46.6187C113.524 49.3872 111.113 51.8669 108.887 54.4661C107.233 55.5879 106.907 54.6382 107.359 53.0721C109.128 46.9353 111.869 42.3549 110.922 35.4794C110.832 34.831 110.353 32.0153 109.39 32.3305C108.977 32.4651 107.139 37.0497 106.787 37.7814C102.897 45.8815 98.0276 52.8347 90.6527 58.1162C89.822 58.7105 87.0241 60.2322 86.5907 60.7459C86.1034 61.3221 85.587 63.1173 85.0208 63.992C84.3507 65.0236 83.4107 65.7886 82.6021 66.7008C85.2852 72.4614 86.3775 78.8634 86.1809 85.2168C95.2767 82.6843 104.345 78.7704 110.755 71.6117C112.624 69.5249 114.449 66.948 115.251 64.2517C113.553 65.218 111.826 66.2052 110.042 67.0091C109.132 67.4186 105.455 69.4235 105.844 67.2451C108.486 63.3589 111.742 59.874 113.711 55.5546C114.656 53.4803 116.237 49.0929 115.742 46.8908C115.714 46.7673 115.699 46.5798 115.533 46.6201L115.531 46.6187ZM80.2237 68.9709C78.7963 69.5665 77.4049 70.3038 75.8834 70.6564C75.0417 70.8508 73.7611 71.1632 73.2738 70.1816C72.2589 68.1392 75.1649 67.7658 76.4427 67.1896C84.802 63.4242 86.3207 54.3231 84.4504 46.0606C83.6778 42.6506 81.0723 37.1719 78.057 35.2559C77.4063 34.8421 76.7695 34.9046 75.9983 34.949C70.9866 35.2392 63.6103 38.0174 59.81 41.3455C58.409 42.5714 58.0282 44.3014 56.0111 42.788C54.664 41.7773 53.6146 40.5707 52.1111 39.6183C48.6002 37.394 41.7887 34.9935 37.6534 34.8185C36.6649 34.7769 36.0405 35.3156 35.3067 35.932C29.1654 41.0831 27.4306 51.4004 29.9697 58.7702C31.5701 63.4131 33.9306 65.8831 38.5616 67.5089C39.7688 67.9324 44.181 68.5238 42.5086 70.644C41.6337 71.7519 39.8602 70.8355 38.6945 70.7772C41.671 82.0068 39.1527 94.5359 31.8013 103.509C31.6435 104.142 32.369 104.925 32.7455 105.413C33.9874 107.021 36.2025 108.884 37.9607 109.902C38.2792 110.086 39.5418 110.787 39.7923 110.836C40.1481 110.905 40.8888 109.974 41.3692 109.764C42.0476 109.468 43.2811 109.427 44.0135 109.524C44.4801 109.586 45.1225 110.006 45.4312 110.032C45.6929 110.054 45.9684 109.82 46.2522 109.802C47.8872 109.692 49.1124 110.139 50.1826 111.391C50.4692 111.727 50.9108 112.648 51.2251 112.706C52.9169 112.592 54.6696 112.677 56.3545 112.573C56.9359 112.537 59.7131 112.331 59.9789 112.111C60.2821 111.859 60.6421 111.032 61.1945 110.624C62.4848 109.67 63.1618 110.12 64.4839 109.896C65.5416 109.718 66.0428 109.028 67.4162 109.243C67.8744 109.316 68.2537 109.707 68.7978 109.65C69.9054 109.534 74.6056 104.939 75.5276 103.892C81.7465 96.831 83.8412 86.2873 82.4235 77.1154C81.9916 74.3247 81.1983 71.6117 80.2292 68.9695L80.2237 68.9709ZM27.4791 103.681C35.3635 96.4672 38.4204 84.4546 36.1568 74.0817C35.7982 72.4378 35.1918 70.3566 34.1203 69.0431C33.4045 68.1684 32.2942 67.7519 31.5618 66.8924C26.8962 70.6703 23.8948 75.6242 22.394 81.4362C20.6275 88.2783 20.8781 97.5085 22.3982 104.401C22.5311 105.005 22.6903 105.843 22.8952 106.403C22.9658 106.594 22.8454 106.64 23.1846 106.596C25.0411 101.692 26.5488 96.6727 27.7989 91.5758C28.1589 90.111 28.3831 87.7396 28.9314 86.4636C29.4021 85.3696 30.8793 85.3223 31.1479 86.4595C31.3112 87.1495 31.141 88.1436 31.0593 88.8767C30.5 93.9417 28.6116 98.747 27.4791 103.681ZM111.929 88.2714C110.511 88.7157 109.019 88.8184 107.602 89.2766C103.452 90.6178 99.4217 94.8275 100.441 99.5176C101.95 98.3402 103.637 93.6071 105.664 93.4377C106.668 93.3544 106.974 94.2069 106.743 95.0788C106.606 95.5939 104.237 98.3305 103.705 99.251C103.601 99.4301 102.978 100.544 103.071 100.627C109.687 100.435 111.111 93.5696 111.93 88.2714H111.929ZM66.9358 112.43C67.5394 114.583 67.5754 116.647 67.3705 118.867C67.4771 119.19 68.1956 119.165 68.4573 119.022C69.1772 118.628 69.1121 115.129 68.9792 114.336C68.82 113.38 67.9603 112.379 66.9358 112.43ZM42.2913 119.232C45.0255 119.416 44.5687 115.022 43.9166 113.367C43.457 112.197 42.1127 112.267 42.1459 113.477C42.1514 113.674 42.2899 113.842 42.2899 113.888V119.233L42.2913 119.232ZM48.2125 118.921C48.74 118.393 48.542 115.135 48.3427 114.345C48.1239 113.48 47.8124 112.856 46.8613 112.708C47.3431 114.726 47.1036 116.812 46.9928 118.862C47.0579 119.139 47.9799 119.153 48.2112 118.922L48.2125 118.921ZM63.1493 112.996C63.0192 113.034 62.9389 113.178 62.8835 113.296C62.6343 113.839 62.7755 116.933 62.7852 117.781C62.7907 118.257 62.4765 119.057 63.3999 119.078C64.5504 119.103 64.8577 117.134 64.8425 116.262C64.83 115.569 64.1558 112.709 63.1493 112.996ZM59.7353 115.205L51.567 115.483V117.705L59.7353 117.149V115.205Z" fill="#173B61"/>
<path d="M54.6142 51.4768C56.1883 50.7562 57.7583 51.0728 59.3199 51.6143C58.9849 49.6885 59.4612 47.3254 60.224 45.5107C64.0797 36.3444 77.9989 38.0299 80.1309 47.474C82.083 56.1183 75.3061 62.3912 66.8195 60.4071C64.6653 59.9031 64.225 59.2867 62.5748 58.1384C62.4571 58.0565 62.4377 57.9454 62.2273 58.0024C61.8438 60.6598 60.0509 63.6533 57.9383 65.2944C57.1325 65.9205 56.7947 65.9164 55.9931 65.2944C54.5768 64.1961 52.9072 61.9858 52.233 60.3183C51.9436 59.6032 51.8162 58.841 51.4964 58.144C49.6551 59.5421 47.3265 60.7223 44.9868 60.9153C31.2282 62.0552 28.4634 40.225 44.2904 39.5294C50.5481 39.2545 55.5446 45.3927 54.6114 51.4754L54.6142 51.4768ZM43.5096 42.6325C32.5877 43.7044 35.3483 59.7726 45.4838 57.8024C54.7277 56.0058 53.3101 41.6704 43.5096 42.6325ZM68.4296 42.6325C60.9356 43.442 60.2254 55.2228 67.1808 57.5484C71.4504 58.9757 76.9993 56.0947 77.4395 51.3893C77.9684 45.7454 73.9854 42.0314 68.4296 42.6312V42.6325ZM56.5178 54.1453C55.9571 54.2384 54.7554 55.2714 54.5505 55.7878C53.976 57.2249 55.4283 61.0514 56.7587 61.9955C57.055 62.0205 57.66 61.1499 57.8303 60.8806C58.5723 59.7074 59.3255 57.3623 59.2978 55.9864C59.277 54.959 57.4482 53.9898 56.5192 54.1453H56.5178Z" fill="#173B61"/>
<path d="M45.0297 46.5118C47.6698 46.23 49.507 49.5774 48.0284 51.7462C46.8018 53.5455 43.8682 53.994 42.4546 52.2168C40.5123 49.7774 42.1141 46.8214 45.0311 46.5104L45.0297 46.5118Z" fill="#173B61"/>
<path d="M68.4282 46.3716C73.3056 45.862 73.7015 54.3369 67.9866 53.5469C64.1101 53.011 64.4188 46.7909 68.4282 46.3716Z" fill="#173B61"/>
<path d="M23.0475 25.0968C23.0627 25.1204 23.3355 25.1287 23.5279 25.3758C23.6497 25.5341 24.0914 26.4088 24.1274 26.5879C24.3198 27.5682 23.4324 28.4026 23.4822 28.7414C23.5127 28.9483 23.7965 29.3176 23.8851 29.6022C24.6659 32.1291 25.4647 34.6463 26.3411 37.1413C26.7315 38.9477 24.288 38.1632 23.1818 38.2229L21.9399 33.9827C21.5758 33.9424 21.7212 33.9882 21.6617 34.1868C21.4692 34.8282 20.7092 37.7897 20.417 38.0771C20.2038 38.2868 18.5051 38.4687 18.1327 38.4298C16.5724 38.2701 17.4613 36.5332 17.752 35.5419C18.3113 33.6328 19.0105 31.5668 19.6598 29.68C19.8217 29.2121 20.2772 28.926 20.118 28.3887C20.0488 28.1555 19.6999 27.9972 19.6168 27.6348C19.4341 26.8392 19.5878 26.1423 20.0792 25.5189C20.2869 25.2551 20.6496 25.2245 20.6967 24.8885L20.5596 17.28C18.8291 16.4233 19.3552 14.9072 20.975 14.3379C28.2392 11.5194 35.4743 8.62732 42.7038 5.72274C46.6357 4.14271 51.1129 1.88375 55.0337 0.593909C55.6816 0.380092 56.6106 0.175994 57.282 0.277349C68.5999 4.69253 80.0783 8.77033 91.338 13.3299C91.8862 13.5521 93.7497 14.2477 93.9698 14.7155C94.3339 15.4889 93.9255 16.1609 93.2873 16.6038C92.2932 17.2938 89.4828 18.3324 88.2119 18.8725C86.2986 19.6847 83.7415 20.4067 81.975 21.3647C81.8656 21.4244 81.6787 21.4744 81.6095 21.5535C81.2066 22.0131 81.6053 25.0648 81.6178 25.8521C81.6635 28.6275 81.651 31.4224 81.4766 34.1868C82.0442 35.0087 82.8486 35.6766 83.4688 36.4929C85.5731 39.2642 87.0628 43.5822 87.6595 47.0075C88.169 49.9259 88.3587 53.1401 87.8423 56.0558C88.1593 56.3085 91.0403 53.9871 91.4432 53.6288C96.3054 49.3067 100.502 43.6391 103.327 37.7786C104.291 35.7821 105.858 31.1198 107.435 29.8188C109.513 28.1041 111.981 29.3689 113.063 31.5266C114.9 35.1892 114.068 40.232 113.454 44.1168C117.446 40.5416 119.204 44.6735 118.998 48.4972C118.76 52.9083 116.615 57.6803 114.147 61.2652L116.007 60.9125C120.154 61.6414 118.296 65.9386 116.986 68.4183C114.569 72.9973 109.95 77.2487 105.743 80.1907C99.7886 84.356 92.7736 86.8621 85.7614 88.6143C84.3701 98.0917 79.1881 106.386 71.366 111.804C72.6701 111.9 74.0061 111.911 75.3172 111.879C78.9195 111.79 82.9524 111.715 86.5243 111.455C90.5004 111.165 93.2457 108.566 95.8042 105.767C96.2458 105.284 98.2893 102.969 98.4319 102.564C98.6354 101.982 98.0788 101.446 97.8822 100.903C94.5333 91.6758 104.576 85.843 112.418 85.3571C114.628 85.2196 114.662 85.4876 114.561 87.6452C114.399 91.076 113.425 96.6019 111.235 99.3051C108.884 102.207 104.965 103.683 101.274 103.616C99.2542 106.207 97.1748 108.734 94.7645 110.972L106.183 109.088C108.08 109.334 107.45 111.441 106.009 111.836C104.307 112.302 101.757 112.537 99.9326 112.823C97.4835 113.207 95.0137 113.538 92.5494 113.818C92.4801 114.143 92.5895 114.042 92.7266 114.129C95.22 115.729 98.4983 116.798 101.181 118.142C101.994 118.549 104.987 120.008 105.224 120.753C105.461 121.499 105.074 122.288 104.395 122.578C103.852 122.808 103.657 122.607 103.16 122.406C101.134 121.588 98.011 119.93 96.0548 118.84C93.8175 117.593 89.7929 114.425 87.4588 114.132C85.4416 113.878 82.7932 114.308 80.7165 114.379C77.8978 114.475 75.0874 114.472 72.2659 114.651L71.9391 114.879V116.506L72.27 116.74L84.8629 116.041C89.1076 117.974 95.9385 118.117 98.9732 121.884C99.2473 122.224 100.511 124.036 100.551 124.333C100.726 125.644 99.0604 126.522 97.9501 125.27C96.5573 123.698 96.6224 122.989 94.4405 121.986C92.7972 121.231 85.8085 118.942 84.1762 118.812C80.243 118.5 75.9568 119.544 71.9918 119.515C70.8164 120.43 70.6738 121.421 69.0193 121.809C67.4771 122.17 66.7793 121.544 65.6219 121.52C64.6944 121.5 63.8941 122.024 62.6108 121.835C61.2582 121.637 60.8414 120.915 60.0565 119.954C59.0057 119.779 57.9092 120.037 56.9041 120.072C55.2538 120.129 53.4084 120.059 51.7789 120.208C50.1494 120.356 49.6344 121.805 47.8927 121.877C46.9236 121.917 45.7994 121.188 45.2692 121.188C45.0463 121.188 44.3652 121.595 43.9831 121.692C42.935 121.961 42.0725 121.966 41.0923 121.48C40.623 121.246 40.1038 120.604 39.7037 120.512C39.1043 120.376 37.6506 120.456 36.9584 120.477C32.5531 120.608 27.954 121.166 23.5334 121.453C17.7049 121.832 12.0689 122.054 6.24588 122.721C4.85036 122.881 3.12119 123.339 1.79351 123.398C-0.612659 123.505 -0.377303 120.567 1.95964 120.644C14.3393 118.69 26.8907 118.388 39.3867 117.567L39.5196 115.351L23.8048 114.796C17.2481 114.44 10.7024 113.791 4.14983 113.403C3.2624 113.35 2.23099 113.503 1.37956 113.405C-0.355152 113.203 0.101715 110.946 2.20745 110.758C5.01649 110.508 8.26024 111.126 11.0748 111.318C16.1903 111.668 21.3252 111.973 26.4352 112.158C29.643 112.273 32.8577 112.286 36.0627 112.429C33.7492 110.475 31.3528 108.563 29.6153 106.046C29.409 105.997 26.8201 108.377 26.3577 108.737C25.084 109.724 22.0493 112.381 20.9016 110.071C19.8217 107.897 18.9758 103.03 18.638 100.539C17.1152 89.3196 18.0787 76.878 25.8205 68.074C26.9142 66.83 28.307 65.7859 29.2803 64.4627C23.9557 56.1488 24.8044 43.7655 30.8682 36.0653C31.8387 34.8338 32.6209 34.6922 32.7441 32.9483C33.0017 29.3217 32.5822 25.3981 32.5323 21.7646L23.3299 18.2158L23.0489 18.3643C23.2261 19.2737 22.8163 24.7344 23.0489 25.0982L23.0475 25.0968ZM88.1178 15.2404L56.6189 3.35548C47.4082 7.42078 37.8652 10.7169 28.5894 14.6197C27.828 14.9405 26.8699 15.2904 26.1583 15.6527C26.0282 15.7194 25.8302 15.7319 25.8164 15.9332L57.163 27.7292C61.9656 26.1645 66.5094 23.9347 71.1915 22.0783C76.7542 19.8749 82.4637 17.9978 87.9226 15.5319C88.0873 15.4584 88.1718 15.5972 88.1178 15.2418V15.2404ZM35.7844 23.153V31.1364L36.0183 31.3183C43.5013 32.3513 51.2818 34.6116 57.1754 39.4905C59.8073 37.4857 62.5651 35.6724 65.6538 34.4339C69.7434 32.7928 74.2013 32.1513 78.5568 31.6168L78.4239 22.599C73.5506 24.3026 68.8698 26.5199 64.0603 28.3957C62.3449 29.0649 60.2655 29.9812 58.5585 30.5144C57.3222 30.9004 57.0107 30.8754 55.7854 30.5144C50.2089 28.8719 44.307 26.1145 38.7609 24.1235C38.4093 23.9971 35.8896 23.0405 35.7816 23.1544L35.7844 23.153ZM115.531 46.6187C113.524 49.3872 111.113 51.8669 108.887 54.4661C107.233 55.5879 106.907 54.6382 107.359 53.0721C109.128 46.9353 111.869 42.3549 110.922 35.4794C110.832 34.831 110.353 32.0153 109.39 32.3305C108.977 32.4651 107.139 37.0497 106.787 37.7814C102.897 45.8815 98.0276 52.8347 90.6527 58.1162C89.822 58.7105 87.0241 60.2322 86.5907 60.7459C86.1034 61.3221 85.587 63.1173 85.0208 63.992C84.3507 65.0236 83.4107 65.7886 82.6021 66.7008C85.2852 72.4614 86.3775 78.8634 86.1809 85.2168C95.2767 82.6843 104.345 78.7704 110.755 71.6117C112.624 69.5249 114.449 66.948 115.251 64.2517C113.553 65.218 111.826 66.2052 110.042 67.0091C109.132 67.4186 105.455 69.4235 105.844 67.2451C108.486 63.3589 111.742 59.874 113.711 55.5546C114.656 53.4803 116.237 49.0929 115.742 46.8908C115.714 46.7673 115.699 46.5798 115.533 46.6201L115.531 46.6187ZM80.2237 68.9709C78.7963 69.5665 77.4049 70.3038 75.8834 70.6564C75.0417 70.8508 73.7611 71.1632 73.2738 70.1816C72.2589 68.1392 75.1649 67.7658 76.4427 67.1896C84.802 63.4242 86.3207 54.3231 84.4504 46.0606C83.6778 42.6506 81.0723 37.1719 78.057 35.2559C77.4063 34.8421 76.7695 34.9046 75.9983 34.949C70.9866 35.2392 63.6103 38.0174 59.81 41.3455C58.409 42.5714 58.0282 44.3014 56.0111 42.788C54.664 41.7773 53.6146 40.5707 52.1111 39.6183C48.6002 37.394 41.7887 34.9935 37.6534 34.8185C36.6649 34.7769 36.0405 35.3156 35.3067 35.932C29.1654 41.0831 27.4306 51.4004 29.9697 58.7702C31.5701 63.4131 33.9306 65.8831 38.5616 67.5089C39.7688 67.9324 44.181 68.5238 42.5086 70.644C41.6337 71.7519 39.8602 70.8355 38.6945 70.7772C41.671 82.0068 39.1527 94.5359 31.8013 103.509C31.6435 104.142 32.369 104.925 32.7455 105.413C33.9874 107.021 36.2025 108.884 37.9607 109.902C38.2792 110.086 39.5418 110.787 39.7923 110.836C40.1481 110.905 40.8888 109.974 41.3692 109.764C42.0476 109.468 43.2811 109.427 44.0135 109.524C44.4801 109.586 45.1225 110.006 45.4312 110.032C45.6929 110.054 45.9684 109.82 46.2522 109.802C47.8872 109.692 49.1124 110.139 50.1826 111.391C50.4692 111.727 50.9108 112.648 51.2251 112.706C52.9169 112.592 54.6696 112.677 56.3545 112.573C56.9359 112.537 59.7131 112.331 59.9789 112.111C60.2821 111.859 60.6421 111.032 61.1945 110.624C62.4848 109.67 63.1618 110.12 64.4839 109.896C65.5416 109.718 66.0428 109.028 67.4162 109.243C67.8744 109.316 68.2537 109.707 68.7978 109.65C69.9054 109.534 74.6056 104.939 75.5276 103.892C81.7465 96.831 83.8412 86.2873 82.4235 77.1154C81.9916 74.3247 81.1983 71.6117 80.2292 68.9695L80.2237 68.9709ZM27.4791 103.681C35.3635 96.4672 38.4204 84.4546 36.1568 74.0817C35.7982 72.4378 35.1918 70.3566 34.1203 69.0431C33.4045 68.1684 32.2942 67.7519 31.5618 66.8924C26.8962 70.6703 23.8948 75.6242 22.394 81.4362C20.6275 88.2783 20.8781 97.5085 22.3982 104.401C22.5311 105.005 22.6903 105.843 22.8952 106.403C22.9658 106.594 22.8454 106.64 23.1846 106.596C25.0411 101.692 26.5488 96.6727 27.7989 91.5758C28.1589 90.111 28.3831 87.7396 28.9314 86.4636C29.4021 85.3696 30.8793 85.3223 31.1479 86.4595C31.3112 87.1495 31.141 88.1436 31.0593 88.8767C30.5 93.9417 28.6116 98.747 27.4791 103.681ZM111.929 88.2714C110.511 88.7157 109.019 88.8184 107.602 89.2766C103.452 90.6178 99.4217 94.8275 100.441 99.5176C101.95 98.3402 103.637 93.6071 105.664 93.4377C106.668 93.3544 106.974 94.2069 106.743 95.0788C106.606 95.5939 104.237 98.3305 103.705 99.251C103.601 99.4301 102.978 100.544 103.071 100.627C109.687 100.435 111.111 93.5696 111.93 88.2714H111.929ZM66.9358 112.43C67.5394 114.583 67.5754 116.647 67.3705 118.867C67.4771 119.19 68.1956 119.165 68.4573 119.022C69.1772 118.628 69.1121 115.129 68.9792 114.336C68.82 113.38 67.9603 112.379 66.9358 112.43ZM42.2913 119.232C45.0255 119.416 44.5687 115.022 43.9166 113.367C43.457 112.197 42.1127 112.267 42.1459 113.477C42.1514 113.674 42.2899 113.842 42.2899 113.888V119.233L42.2913 119.232ZM48.2125 118.921C48.74 118.393 48.542 115.135 48.3427 114.345C48.1239 113.48 47.8124 112.856 46.8613 112.708C47.3431 114.726 47.1036 116.812 46.9928 118.862C47.0579 119.139 47.9799 119.153 48.2112 118.922L48.2125 118.921ZM63.1493 112.996C63.0192 113.034 62.9389 113.178 62.8835 113.296C62.6343 113.839 62.7755 116.933 62.7852 117.781C62.7907 118.257 62.4765 119.057 63.3999 119.078C64.5504 119.103 64.8577 117.134 64.8425 116.262C64.83 115.569 64.1558 112.709 63.1493 112.996ZM59.7353 115.205L51.567 115.483V117.705L59.7353 117.149V115.205Z" stroke="#173B61"/>
<path d="M54.6142 51.4768C56.1883 50.7562 57.7583 51.0728 59.3199 51.6143C58.9849 49.6885 59.4612 47.3254 60.224 45.5107C64.0797 36.3444 77.9989 38.0299 80.1309 47.474C82.083 56.1183 75.3061 62.3912 66.8195 60.4071C64.6653 59.9031 64.225 59.2867 62.5748 58.1384C62.4571 58.0565 62.4377 57.9454 62.2273 58.0024C61.8438 60.6598 60.0509 63.6533 57.9383 65.2944C57.1325 65.9205 56.7947 65.9164 55.9931 65.2944C54.5768 64.1961 52.9072 61.9858 52.233 60.3183C51.9436 59.6032 51.8162 58.841 51.4964 58.144C49.6551 59.5421 47.3265 60.7223 44.9868 60.9153C31.2282 62.0552 28.4634 40.225 44.2904 39.5294C50.5481 39.2545 55.5446 45.3927 54.6114 51.4754L54.6142 51.4768ZM43.5096 42.6325C32.5877 43.7044 35.3483 59.7726 45.4838 57.8024C54.7277 56.0058 53.3101 41.6704 43.5096 42.6325ZM68.4296 42.6325C60.9356 43.442 60.2254 55.2228 67.1808 57.5484C71.4504 58.9757 76.9993 56.0947 77.4395 51.3893C77.9684 45.7454 73.9854 42.0314 68.4296 42.6312V42.6325ZM56.5178 54.1453C55.9571 54.2384 54.7554 55.2714 54.5505 55.7878C53.976 57.2249 55.4283 61.0514 56.7587 61.9955C57.055 62.0205 57.66 61.1499 57.8303 60.8806C58.5723 59.7074 59.3255 57.3623 59.2978 55.9864C59.277 54.959 57.4482 53.9898 56.5192 54.1453H56.5178Z" stroke="#173B61"/>
<path d="M45.0297 46.5118C47.6698 46.23 49.507 49.5774 48.0284 51.7462C46.8018 53.5455 43.8682 53.994 42.4546 52.2168C40.5123 49.7774 42.1141 46.8214 45.0311 46.5104L45.0297 46.5118Z" stroke="#173B61"/>
<path d="M68.4282 46.3716C73.3056 45.862 73.7015 54.3369 67.9866 53.5469C64.1101 53.011 64.4188 46.7909 68.4282 46.3716Z" stroke="#173B61"/>
</svg>
