<svg width="293" height="64" viewBox="0 0 293 64" fill="none" xmlns="http://www.w3.org/2000/svg">
    <path d="M0 63.9738V0H60.724L45.4921 14.4197H16.4503V25.7927H34.5252L21.5277 38.5872H16.0442V63.9738H0Z" fill="#173B61"/>
    <path d="M25.3866 43.6915L40.0086 29.4748V64H25.3866V43.6915Z" fill="#173B61"/>
    <path d="M49.351 19.8012L65.7002 4.46813L65.5983 63.9738H49.4529L49.351 19.8012Z" fill="#173B61"/>
    <path d="M103.646 22.5542V8.5339H112.103V10.2131H105.608V14.4415H111.374V16.1004H105.608V22.5542H103.646Z" fill="#173B61"/>
    <path d="M122.951 22.5542C122.722 21.9473 122.506 21.3538 122.304 20.7739C122.101 20.1804 121.892 19.5802 121.676 18.9733H115.324L114.049 22.5542H112.006C112.545 21.0706 113.051 19.7016 113.523 18.4473C113.995 17.1794 114.454 15.979 114.899 14.8461C115.357 13.7131 115.809 12.6341 116.254 11.6091C116.699 10.5705 117.165 9.54546 117.65 8.5339H119.451C119.936 9.54546 120.402 10.5705 120.847 11.6091C121.292 12.6341 121.737 13.7131 122.182 14.8461C122.641 15.979 123.106 17.1794 123.578 18.4473C124.05 19.7016 124.556 21.0706 125.095 22.5542H122.951ZM121.11 17.3548C120.678 16.1813 120.247 15.0484 119.815 13.9559C119.397 12.8499 118.959 11.7911 118.5 10.7796C118.028 11.7911 117.576 12.8499 117.145 13.9559C116.726 15.0484 116.308 16.1813 115.89 17.3548H121.11Z" fill="#173B61"/>
    <path d="M132.653 22.8577C131.668 22.8577 130.771 22.6958 129.962 22.3721C129.152 22.0484 128.458 21.5764 127.878 20.9559C127.298 20.3355 126.846 19.5735 126.522 18.6698C126.212 17.7526 126.057 16.7074 126.057 15.5339C126.057 14.3605 126.232 13.322 126.583 12.4183C126.947 11.5012 127.433 10.7324 128.04 10.1119C128.647 9.49151 129.355 9.01945 130.164 8.69575C130.973 8.37204 131.837 8.21019 132.754 8.21019C133.334 8.21019 133.853 8.25066 134.311 8.33158C134.784 8.41251 135.188 8.50692 135.525 8.61482C135.876 8.72272 136.159 8.83062 136.375 8.93852C136.591 9.04642 136.739 9.12735 136.82 9.1813L136.254 10.7998C136.132 10.7189 135.957 10.6312 135.728 10.5368C135.498 10.4424 135.235 10.348 134.939 10.2536C134.655 10.1591 134.338 10.085 133.988 10.031C133.651 9.96358 133.307 9.92986 132.956 9.92986C132.214 9.92986 131.547 10.058 130.953 10.3143C130.36 10.5705 129.854 10.9414 129.436 11.427C129.018 11.9125 128.694 12.506 128.465 13.2073C128.249 13.8952 128.141 14.6707 128.141 15.5339C128.141 16.3702 128.235 17.1322 128.424 17.8201C128.626 18.508 128.923 19.1014 129.314 19.6004C129.705 20.086 130.191 20.4636 130.771 20.7334C131.364 21.0032 132.052 21.138 132.835 21.138C133.738 21.138 134.487 21.0436 135.08 20.8548C135.674 20.666 136.119 20.4974 136.416 20.349L136.921 21.9675C136.827 22.035 136.658 22.1226 136.416 22.2305C136.173 22.3249 135.869 22.4193 135.505 22.5138C135.141 22.6082 134.716 22.6891 134.231 22.7565C133.745 22.824 133.219 22.8577 132.653 22.8577Z" fill="#173B61"/>
    <path d="M144.389 22.8577C143.472 22.8577 142.676 22.7161 142.002 22.4328C141.327 22.1496 140.774 21.7652 140.343 21.2796C139.911 20.7806 139.587 20.1939 139.372 19.5195C139.169 18.8451 139.068 18.1168 139.068 17.3345V8.5339H141.031V17.112C141.031 18.5147 141.341 19.533 141.961 20.1669C142.582 20.8008 143.391 21.1178 144.389 21.1178C144.888 21.1178 145.34 21.0436 145.745 20.8953C146.163 20.7334 146.52 20.4906 146.817 20.1669C147.114 19.8432 147.343 19.4319 147.505 18.9328C147.667 18.4203 147.747 17.8133 147.747 17.112V8.5339H149.71V17.3345C149.71 18.1168 149.602 18.8451 149.386 19.5195C149.184 20.1939 148.86 20.7806 148.415 21.2796C147.984 21.7652 147.431 22.1496 146.756 22.4328C146.095 22.7161 145.306 22.8577 144.389 22.8577Z" fill="#173B61"/>
    <path d="M161.535 20.8548V22.5542H153.098V8.5339H155.061V20.8548H161.535Z" fill="#173B61"/>
    <path d="M170.625 8.5339V10.2333H166.215V22.5542H164.252V10.2333H159.842V8.5339H170.625Z" fill="#173B61"/>
    <path d="M176.628 22.5542V16.9299C175.698 15.4867 174.821 14.0638 173.998 12.6611C173.175 11.2584 172.4 9.88265 171.672 8.5339H173.978C174.49 9.63988 175.064 10.7661 175.698 11.9125C176.331 13.0455 176.986 14.138 177.66 15.19C178.321 14.138 178.968 13.0455 179.602 11.9125C180.236 10.7661 180.816 9.63988 181.342 8.5339H183.527C182.799 9.88265 182.023 11.2584 181.2 12.6611C180.378 14.0503 179.508 15.4598 178.591 16.8894V22.5542H176.628Z" fill="#173B61"/>
    <path d="M189.497 15.5339C189.497 14.3335 189.673 13.2748 190.023 12.3576C190.388 11.4405 190.873 10.6784 191.48 10.0715C192.1 9.45105 192.815 8.98573 193.625 8.67552C194.447 8.3653 195.317 8.21019 196.234 8.21019C197.138 8.21019 197.988 8.3653 198.784 8.67552C199.593 8.98573 200.301 9.45105 200.908 10.0715C201.515 10.6784 201.994 11.4405 202.344 12.3576C202.708 13.2748 202.891 14.3335 202.891 15.5339C202.891 16.7343 202.708 17.7931 202.344 18.7103C201.994 19.6274 201.515 20.3962 200.908 21.0166C200.301 21.6236 199.593 22.0822 198.784 22.3924C197.988 22.7026 197.138 22.8577 196.234 22.8577C195.317 22.8577 194.447 22.7026 193.625 22.3924C192.815 22.0822 192.1 21.6236 191.48 21.0166C190.873 20.3962 190.388 19.6274 190.023 18.7103C189.673 17.7931 189.497 16.7343 189.497 15.5339ZM191.561 15.5339C191.561 16.3837 191.669 17.1592 191.885 17.8605C192.1 18.5484 192.404 19.1351 192.795 19.6207C193.2 20.1062 193.685 20.4839 194.252 20.7536C194.832 21.0099 195.479 21.138 196.194 21.138C196.909 21.138 197.549 21.0099 198.116 20.7536C198.682 20.4839 199.161 20.1062 199.552 19.6207C199.957 19.1351 200.267 18.5484 200.483 17.8605C200.699 17.1592 200.807 16.3837 200.807 15.5339C200.807 14.6842 200.699 13.9154 200.483 13.2276C200.267 12.5262 199.957 11.9328 199.552 11.4472C199.161 10.9617 198.682 10.5907 198.116 10.3345C197.549 10.0647 196.909 9.92986 196.194 9.92986C195.479 9.92986 194.832 10.0647 194.252 10.3345C193.685 10.5907 193.2 10.9617 192.795 11.4472C192.404 11.9328 192.1 12.5262 191.885 13.2276C191.669 13.9154 191.561 14.6842 191.561 15.5339Z" fill="#173B61"/>
    <path d="M205.81 22.5542V8.5339H214.267V10.2131H207.773V14.4415H213.539V16.1004H207.773V22.5542H205.81Z" fill="#173B61"/>
    <path d="M109.675 39.7921C108.69 39.7921 107.793 39.6302 106.984 39.3065C106.175 38.9828 105.48 38.5108 104.9 37.8903C104.32 37.2699 103.869 36.5079 103.545 35.6042C103.235 34.687 103.079 33.6418 103.079 32.4683C103.079 31.2949 103.255 30.2564 103.606 29.3527C103.97 28.4356 104.455 27.6668 105.062 27.0463C105.669 26.4259 106.377 25.9538 107.186 25.6301C107.996 25.3064 108.859 25.1446 109.776 25.1446C110.356 25.1446 110.875 25.185 111.334 25.266C111.806 25.3469 112.211 25.4413 112.548 25.5492C112.898 25.6571 113.182 25.765 113.397 25.8729C113.613 25.9808 113.762 26.0617 113.843 26.1157L113.276 27.7342C113.155 27.6533 112.979 27.5656 112.75 27.4712C112.521 27.3768 112.258 27.2824 111.961 27.188C111.678 27.0935 111.361 27.0194 111.01 26.9654C110.673 26.898 110.329 26.8643 109.978 26.8643C109.237 26.8643 108.569 26.9924 107.975 27.2486C107.382 27.5049 106.876 27.8758 106.458 28.3614C106.04 28.8469 105.716 29.4404 105.487 30.1417C105.271 30.8296 105.163 31.6051 105.163 32.4683C105.163 33.3046 105.258 34.0666 105.447 34.7545C105.649 35.4423 105.946 36.0358 106.337 36.5348C106.728 37.0204 107.213 37.398 107.793 37.6678C108.387 37.9375 109.075 38.0724 109.857 38.0724C110.761 38.0724 111.509 37.978 112.103 37.7892C112.696 37.6003 113.141 37.4318 113.438 37.2834L113.944 38.9019C113.849 38.9693 113.681 39.057 113.438 39.1649C113.195 39.2593 112.892 39.3537 112.528 39.4482C112.163 39.5426 111.739 39.6235 111.253 39.6909C110.767 39.7584 110.241 39.7921 109.675 39.7921Z" fill="#173B61"/>
    <path d="M115.23 32.4683C115.23 31.2679 115.405 30.2092 115.756 29.292C116.12 28.3749 116.606 27.6128 117.213 27.0059C117.833 26.3854 118.548 25.9201 119.357 25.6099C120.18 25.2997 121.05 25.1446 121.967 25.1446C122.871 25.1446 123.721 25.2997 124.516 25.6099C125.326 25.9201 126.034 26.3854 126.641 27.0059C127.248 27.6128 127.726 28.3749 128.077 29.292C128.441 30.2092 128.623 31.2679 128.623 32.4683C128.623 33.6687 128.441 34.7275 128.077 35.6447C127.726 36.5618 127.248 37.3306 126.641 37.951C126.034 38.558 125.326 39.0165 124.516 39.3268C123.721 39.637 122.871 39.7921 121.967 39.7921C121.05 39.7921 120.18 39.637 119.357 39.3268C118.548 39.0165 117.833 38.558 117.213 37.951C116.606 37.3306 116.12 36.5618 115.756 35.6447C115.405 34.7275 115.23 33.6687 115.23 32.4683ZM117.294 32.4683C117.294 33.3181 117.402 34.0936 117.617 34.7949C117.833 35.4828 118.137 36.0695 118.528 36.5551C118.932 37.0406 119.418 37.4183 119.985 37.688C120.564 37.9443 121.212 38.0724 121.927 38.0724C122.642 38.0724 123.282 37.9443 123.849 37.688C124.415 37.4183 124.894 37.0406 125.285 36.5551C125.69 36.0695 126 35.4828 126.216 34.7949C126.432 34.0936 126.539 33.3181 126.539 32.4683C126.539 31.6186 126.432 30.8498 126.216 30.162C126 29.4606 125.69 28.8672 125.285 28.3816C124.894 27.896 124.415 27.5251 123.849 27.2689C123.282 26.9991 122.642 26.8643 121.927 26.8643C121.212 26.8643 120.564 26.9991 119.985 27.2689C119.418 27.5251 118.932 27.896 118.528 28.3816C118.137 28.8672 117.833 29.4606 117.617 30.162C117.402 30.8498 117.294 31.6186 117.294 32.4683Z" fill="#173B61"/>
    <path d="M137.835 37.5464C137.7 37.2227 137.518 36.8113 137.289 36.3123C137.073 35.8133 136.837 35.2737 136.581 34.6938C136.324 34.1138 136.048 33.5204 135.751 32.9134C135.468 32.293 135.198 31.713 134.942 31.1735C134.686 30.6205 134.443 30.1282 134.214 29.6966C133.998 29.265 133.822 28.9346 133.688 28.7053C133.539 30.2968 133.418 32.0232 133.323 33.8845C133.229 35.7323 133.148 37.6004 133.081 39.4886H131.159C131.213 38.2747 131.273 37.0541 131.341 35.8267C131.408 34.5859 131.482 33.372 131.563 32.1851C131.658 30.9847 131.752 29.818 131.847 28.6851C131.954 27.5521 132.069 26.4799 132.191 25.4683H133.91C134.274 26.0617 134.665 26.7631 135.084 27.5723C135.502 28.3816 135.92 29.2313 136.338 30.1215C136.756 30.9982 137.161 31.8816 137.552 32.7718C137.943 33.6485 138.3 34.451 138.624 35.1793C138.948 34.451 139.305 33.6485 139.696 32.7718C140.087 31.8816 140.492 30.9982 140.91 30.1215C141.328 29.2313 141.746 28.3816 142.165 27.5723C142.583 26.7631 142.974 26.0617 143.338 25.4683H145.058C145.516 29.9866 145.86 34.6601 146.089 39.4886H144.167C144.1 37.6004 144.019 35.7323 143.925 33.8845C143.83 32.0232 143.709 30.2968 143.561 28.7053C143.426 28.9346 143.244 29.265 143.014 29.6966C142.798 30.1282 142.562 30.6205 142.306 31.1735C142.05 31.713 141.773 32.293 141.477 32.9134C141.193 33.5204 140.924 34.1138 140.667 34.6938C140.411 35.2737 140.168 35.8133 139.939 36.3123C139.723 36.8113 139.548 37.2227 139.413 37.5464H137.835Z" fill="#173B61"/>
    <path d="M152.889 25.3267C154.858 25.3267 156.369 25.7043 157.421 26.4596C158.486 27.2014 159.019 28.3142 159.019 29.7978C159.019 30.607 158.871 31.3017 158.574 31.8816C158.291 32.4481 157.873 32.9134 157.32 33.2776C156.78 33.6283 156.119 33.8845 155.337 34.0464C154.555 34.2082 153.671 34.2892 152.687 34.2892H151.129V39.4886H149.167V25.6706C149.719 25.5357 150.333 25.4481 151.008 25.4076C151.695 25.3536 152.323 25.3267 152.889 25.3267ZM153.051 27.0463C152.215 27.0463 151.574 27.0666 151.129 27.107V32.61H152.606C153.28 32.61 153.887 32.5695 154.427 32.4886C154.966 32.3941 155.418 32.2458 155.782 32.0435C156.16 31.8277 156.45 31.5377 156.652 31.1735C156.854 30.8094 156.956 30.344 156.956 29.7776C156.956 29.2381 156.848 28.793 156.632 28.4423C156.43 28.0916 156.146 27.8151 155.782 27.6128C155.431 27.397 155.02 27.2486 154.548 27.1677C154.076 27.0868 153.577 27.0463 153.051 27.0463Z" fill="#173B61"/>
    <path d="M166.695 39.7921C165.778 39.7921 164.982 39.6505 164.308 39.3672C163.633 39.084 163.08 38.6996 162.649 38.214C162.217 37.715 161.893 37.1283 161.678 36.4539C161.475 35.7795 161.374 35.0512 161.374 34.2689V25.4683H163.337V34.0464C163.337 35.4491 163.647 36.4674 164.267 37.1013C164.888 37.7352 165.697 38.0522 166.695 38.0522C167.194 38.0522 167.646 37.978 168.05 37.8296C168.469 37.6678 168.826 37.425 169.123 37.1013C169.419 36.7776 169.649 36.3662 169.811 35.8672C169.972 35.3547 170.053 34.7477 170.053 34.0464V25.4683H172.016V34.2689C172.016 35.0512 171.908 35.7795 171.692 36.4539C171.49 37.1283 171.166 37.715 170.721 38.214C170.289 38.6996 169.736 39.084 169.062 39.3672C168.401 39.6505 167.612 39.7921 166.695 39.7921Z" fill="#173B61"/>
    <path d="M184.771 25.4683V27.1677H180.361V39.4886H178.398V27.1677H173.988V25.4683H184.771Z" fill="#173B61"/>
    <path d="M186.843 39.4886V25.4683H195.401V27.1475H188.806V31.3151H194.673V32.9539H188.806V37.8094H195.907V39.4886H186.843Z" fill="#173B61"/>
    <path d="M205.26 33.6215C205.476 33.8913 205.745 34.2487 206.069 34.6938C206.406 35.1254 206.75 35.6109 207.101 36.1504C207.452 36.6765 207.795 37.2294 208.133 37.8094C208.483 38.3894 208.78 38.9491 209.023 39.4886H206.878C206.609 38.9761 206.312 38.4568 205.988 37.9308C205.678 37.4048 205.361 36.9057 205.037 36.4337C204.714 35.9481 204.39 35.4963 204.066 35.0782C203.756 34.6601 203.473 34.2959 203.216 33.9857C203.041 33.9992 202.859 34.0059 202.67 34.0059C202.495 34.0059 202.313 34.0059 202.124 34.0059H200.364V39.4886H198.401V25.6706C198.954 25.5357 199.568 25.4481 200.242 25.4076C200.93 25.3536 201.557 25.3267 202.124 25.3267C204.093 25.3267 205.59 25.6976 206.615 26.4394C207.654 27.1812 208.173 28.2872 208.173 29.7573C208.173 30.688 207.924 31.4837 207.425 32.1446C206.939 32.8055 206.217 33.2978 205.26 33.6215ZM202.286 27.0463C201.45 27.0463 200.809 27.0666 200.364 27.107V32.3874H201.76C202.434 32.3874 203.041 32.3537 203.581 32.2863C204.12 32.2188 204.572 32.0907 204.936 31.9019C205.314 31.713 205.604 31.45 205.806 31.1128C206.008 30.7622 206.11 30.3036 206.11 29.7371C206.11 29.2111 206.008 28.7727 205.806 28.4221C205.604 28.0714 205.327 27.7949 204.977 27.5926C204.639 27.3903 204.235 27.2486 203.763 27.1677C203.304 27.0868 202.812 27.0463 202.286 27.0463Z" fill="#173B61"/>
    <path d="M219.065 38.0926C221.115 38.0926 222.14 37.3913 222.14 35.9886C222.14 35.557 222.045 35.1928 221.857 34.8961C221.681 34.5859 221.439 34.3229 221.128 34.1071C220.818 33.8778 220.461 33.6822 220.056 33.5204C219.665 33.3585 219.247 33.1967 218.802 33.0348C218.289 32.8595 217.804 32.6639 217.345 32.4481C216.886 32.2188 216.489 31.9558 216.151 31.6591C215.814 31.3489 215.544 30.9847 215.342 30.5666C215.153 30.1485 215.059 29.6427 215.059 29.0492C215.059 27.8219 215.477 26.8642 216.313 26.1764C217.149 25.4885 218.303 25.1446 219.773 25.1446C220.623 25.1446 221.391 25.239 222.079 25.4278C222.781 25.6032 223.293 25.7987 223.617 26.0145L222.99 27.6128C222.706 27.4375 222.281 27.2689 221.715 27.107C221.162 26.9317 220.515 26.844 219.773 26.844C219.395 26.844 219.044 26.8845 218.721 26.9654C218.397 27.0463 218.114 27.1677 217.871 27.3296C217.628 27.4914 217.433 27.7005 217.284 27.9567C217.149 28.1995 217.082 28.4895 217.082 28.8267C217.082 29.2043 217.156 29.5213 217.305 29.7776C217.453 30.0338 217.662 30.2631 217.932 30.4654C218.201 30.6543 218.512 30.8296 218.862 30.9914C219.227 31.1533 219.624 31.3151 220.056 31.477C220.663 31.7198 221.216 31.9625 221.715 32.2053C222.228 32.4481 222.666 32.7381 223.03 33.0753C223.408 33.4125 223.698 33.8171 223.9 34.2892C224.102 34.7477 224.203 35.3075 224.203 35.9684C224.203 37.1957 223.752 38.1399 222.848 38.8007C221.958 39.4616 220.697 39.7921 219.065 39.7921C218.512 39.7921 217.999 39.7516 217.527 39.6707C217.069 39.6033 216.657 39.5223 216.293 39.4279C215.929 39.32 215.612 39.2121 215.342 39.1042C215.086 38.9828 214.884 38.8817 214.735 38.8007L215.322 37.1822C215.632 37.3576 216.104 37.5531 216.738 37.7689C217.372 37.9847 218.148 38.0926 219.065 38.0926Z" fill="#173B61"/>
    <path d="M232.604 39.7921C231.619 39.7921 230.723 39.6302 229.913 39.3065C229.104 38.9828 228.409 38.5108 227.829 37.8903C227.249 37.2699 226.798 36.5079 226.474 35.6042C226.164 34.687 226.009 33.6418 226.009 32.4683C226.009 31.2949 226.184 30.2564 226.535 29.3527C226.899 28.4356 227.384 27.6668 227.991 27.0463C228.598 26.4259 229.306 25.9538 230.116 25.6301C230.925 25.3064 231.788 25.1446 232.705 25.1446C233.285 25.1446 233.804 25.185 234.263 25.266C234.735 25.3469 235.14 25.4413 235.477 25.5492C235.828 25.6571 236.111 25.765 236.327 25.8729C236.542 25.9808 236.691 26.0617 236.772 26.1157L236.205 27.7342C236.084 27.6533 235.909 27.5656 235.679 27.4712C235.45 27.3768 235.187 27.2824 234.89 27.188C234.607 27.0935 234.29 27.0194 233.939 26.9654C233.602 26.898 233.258 26.8643 232.908 26.8643C232.166 26.8643 231.498 26.9924 230.905 27.2486C230.311 27.5049 229.805 27.8758 229.387 28.3614C228.969 28.8469 228.645 29.4404 228.416 30.1417C228.2 30.8296 228.092 31.6051 228.092 32.4683C228.092 33.3046 228.187 34.0666 228.376 34.7545C228.578 35.4423 228.875 36.0358 229.266 36.5348C229.657 37.0204 230.143 37.398 230.723 37.6678C231.316 37.9375 232.004 38.0724 232.786 38.0724C233.69 38.0724 234.438 37.978 235.032 37.7892C235.625 37.6003 236.07 37.4318 236.367 37.2834L236.873 38.9019C236.778 38.9693 236.61 39.057 236.367 39.1649C236.124 39.2593 235.821 39.3537 235.457 39.4482C235.093 39.5426 234.668 39.6235 234.182 39.6909C233.697 39.7584 233.171 39.7921 232.604 39.7921Z" fill="#173B61"/>
    <path d="M239.121 25.4683H241.083V39.4886H239.121V25.4683Z" fill="#173B61"/>
    <path d="M244.554 39.4886V25.4683H253.112V27.1475H246.517V31.3151H252.384V32.9539H246.517V37.8094H253.618V39.4886H244.554Z" fill="#173B61"/>
    <path d="M265.722 39.4886C265.425 38.9896 265.081 38.4298 264.69 37.8094C264.313 37.189 263.901 36.5483 263.456 35.8874C263.011 35.2131 262.546 34.5319 262.06 33.8441C261.588 33.1562 261.116 32.4953 260.644 31.8614C260.172 31.214 259.713 30.6071 259.268 30.0406C258.823 29.4741 258.412 28.9751 258.034 28.5435V39.4886H256.112V25.4683H257.67C258.304 26.1427 258.978 26.9317 259.693 27.8354C260.421 28.7255 261.136 29.6494 261.838 30.607C262.552 31.5512 263.22 32.4818 263.84 33.399C264.474 34.3161 265.007 35.1321 265.439 35.847V25.4683H267.361V39.4886H265.722Z" fill="#173B61"/>
    <path d="M276.86 39.7921C275.876 39.7921 274.979 39.6302 274.169 39.3065C273.36 38.9828 272.665 38.5108 272.086 37.8903C271.506 37.2699 271.054 36.5079 270.73 35.6042C270.42 34.687 270.265 33.6418 270.265 32.4683C270.265 31.2949 270.44 30.2564 270.791 29.3527C271.155 28.4356 271.64 27.6668 272.247 27.0463C272.854 26.4259 273.562 25.9538 274.372 25.6301C275.181 25.3064 276.044 25.1446 276.961 25.1446C277.541 25.1446 278.061 25.185 278.519 25.266C278.991 25.3469 279.396 25.4413 279.733 25.5492C280.084 25.6571 280.367 25.765 280.583 25.8729C280.798 25.9808 280.947 26.0617 281.028 26.1157L280.461 27.7342C280.34 27.6533 280.165 27.5656 279.935 27.4712C279.706 27.3768 279.443 27.2824 279.146 27.188C278.863 27.0935 278.546 27.0194 278.195 26.9654C277.858 26.898 277.514 26.8643 277.164 26.8643C276.422 26.8643 275.754 26.9924 275.161 27.2486C274.567 27.5049 274.061 27.8758 273.643 28.3614C273.225 28.8469 272.902 29.4404 272.672 30.1417C272.456 30.8296 272.349 31.6051 272.349 32.4683C272.349 33.3046 272.443 34.0666 272.632 34.7545C272.834 35.4423 273.131 36.0358 273.522 36.5348C273.913 37.0204 274.399 37.398 274.979 37.6678C275.572 37.9375 276.26 38.0724 277.042 38.0724C277.946 38.0724 278.694 37.978 279.288 37.7892C279.881 37.6003 280.326 37.4318 280.623 37.2834L281.129 38.9019C281.035 38.9693 280.866 39.057 280.623 39.1649C280.38 39.2593 280.077 39.3537 279.713 39.4482C279.349 39.5426 278.924 39.6235 278.438 39.6909C277.953 39.7584 277.427 39.7921 276.86 39.7921Z" fill="#173B61"/>
    <path d="M283.377 39.4886V25.4683H291.935V27.1475H285.339V31.3151H291.207V32.9539H285.339V37.8094H292.441V39.4886H283.377Z" fill="#173B61"/>
    <path d="M103.646 42.4027H105.608V56.423H103.646V42.4027Z" fill="#173B61"/>
    <path d="M118.446 56.423C118.217 55.8161 118.001 55.2226 117.799 54.6426C117.597 54.0492 117.388 53.449 117.172 52.8421H110.819L109.545 56.423H107.501C108.041 54.9394 108.546 53.5704 109.019 52.316C109.491 51.0482 109.949 49.8478 110.394 48.7149C110.853 47.5819 111.305 46.5029 111.75 45.4778C112.195 44.4393 112.66 43.4142 113.146 42.4027H114.946C115.432 43.4142 115.897 44.4393 116.342 45.4778C116.787 46.5029 117.232 47.5819 117.678 48.7149C118.136 49.8478 118.601 51.0482 119.073 52.316C119.546 53.5704 120.051 54.9394 120.591 56.423H118.446ZM116.605 51.2235C116.174 50.0501 115.742 48.9172 115.31 47.8247C114.892 46.7187 114.454 45.6599 113.995 44.6484C113.523 45.6599 113.072 46.7187 112.64 47.8247C112.222 48.9172 111.804 50.0501 111.386 51.2235H116.605Z" fill="#173B61"/>
    <path d="M126.068 55.027C128.118 55.027 129.143 54.3257 129.143 52.923C129.143 52.4914 129.048 52.1272 128.86 51.8305C128.684 51.5203 128.441 51.2573 128.131 51.0415C127.821 50.8122 127.464 50.6166 127.059 50.4548C126.668 50.2929 126.25 50.1311 125.805 49.9692C125.292 49.7939 124.807 49.5983 124.348 49.3825C123.889 49.1532 123.492 48.8902 123.154 48.5935C122.817 48.2833 122.547 47.9191 122.345 47.501C122.156 47.0829 122.062 46.5771 122.062 45.9836C122.062 44.7563 122.48 43.7986 123.316 43.1108C124.152 42.4229 125.306 42.079 126.776 42.079C127.625 42.079 128.394 42.1734 129.082 42.3622C129.784 42.5376 130.296 42.7331 130.62 42.9489L129.993 44.5472C129.709 44.3719 129.284 44.2033 128.718 44.0414C128.165 43.8661 127.518 43.7784 126.776 43.7784C126.398 43.7784 126.047 43.8189 125.724 43.8998C125.4 43.9807 125.117 44.1021 124.874 44.264C124.631 44.4258 124.436 44.6349 124.287 44.8911C124.152 45.1339 124.085 45.4239 124.085 45.7611C124.085 46.1387 124.159 46.4557 124.308 46.712C124.456 46.9682 124.665 47.1975 124.935 47.3998C125.204 47.5886 125.515 47.764 125.865 47.9258C126.23 48.0877 126.627 48.2495 127.059 48.4114C127.666 48.6542 128.219 48.8969 128.718 49.1397C129.231 49.3825 129.669 49.6725 130.033 50.0097C130.411 50.3469 130.701 50.7515 130.903 51.2235C131.105 51.6821 131.206 52.2419 131.206 52.9027C131.206 54.1301 130.755 55.0742 129.851 55.7351C128.961 56.396 127.7 56.7265 126.068 56.7265C125.515 56.7265 125.002 56.686 124.53 56.6051C124.072 56.5376 123.66 56.4567 123.296 56.3623C122.932 56.2544 122.615 56.1465 122.345 56.0386C122.089 55.9172 121.887 55.8161 121.738 55.7351L122.325 54.1166C122.635 54.292 123.107 54.4875 123.741 54.7033C124.375 54.9191 125.151 55.027 126.068 55.027ZM125.562 57.4346H127.362C127.376 57.502 127.383 57.5762 127.383 57.6571C127.383 57.7515 127.383 57.819 127.383 57.8594C127.383 58.291 127.315 58.6552 127.18 58.9519C127.059 59.2486 126.89 59.4914 126.675 59.6803C126.459 59.8691 126.203 60.0039 125.906 60.0849C125.623 60.1793 125.319 60.2265 124.995 60.2265C124.82 60.2265 124.658 60.2198 124.51 60.2063C124.375 60.1928 124.287 60.1725 124.247 60.1456V59.0126C124.449 59.0126 124.631 58.9991 124.793 58.9722C124.968 58.9452 125.11 58.8845 125.218 58.7901C125.326 58.7091 125.407 58.581 125.461 58.4057C125.528 58.2303 125.562 57.9943 125.562 57.6976V57.4346Z" fill="#173B61"/>
    <path d="M133.578 42.4027H135.541V56.423H133.578V42.4027Z" fill="#173B61"/>
</svg>
