<svg width="62" height="48" viewBox="0 0 62 48" fill="none" xmlns="http://www.w3.org/2000/svg">
    <path fill-rule="evenodd" clip-rule="evenodd" d="M33.1145 0.337756L60.0135 8.60205C62.2845 9.30022 62.2845 12.3012 60.0135 12.9994L48.838 16.4327C48.9692 17.4891 49.0348 18.599 49.0348 19.7621C49.0348 22.3308 48.7178 24.6532 48.0837 26.7292C47.4496 28.7701 46.5514 30.5647 45.3889 32.1129C44.2616 33.6611 42.9054 34.9455 41.3202 35.9659C39.735 36.9863 37.9913 37.7253 36.0891 38.1827C36.2652 38.8865 36.6527 39.4495 37.2515 39.8717C37.8504 40.3291 38.6078 40.6986 39.5237 40.9801C40.4396 41.2616 41.4964 41.4727 42.6941 41.6135C43.927 41.7542 45.248 41.8774 46.6571 41.9829L44.9662 48C42.2185 47.8944 39.8583 47.6129 37.8856 47.1555C35.9482 46.7332 34.2925 46.135 32.9187 45.3609C31.5801 44.5868 30.5057 43.6367 29.6954 42.5107C28.9205 41.3848 28.3216 40.0828 27.8989 38.605C25.7148 38.3235 23.6893 37.7253 21.8223 36.8104C19.9553 35.8603 18.3349 34.5936 16.961 33.0102C15.5872 31.4267 14.5128 29.5266 13.7378 27.3098C12.9628 25.093 12.5753 22.5771 12.5753 19.7621C12.5753 18.5882 12.6446 17.4686 12.7832 16.4034L9.74212 15.469C8.56082 16.281 7.82022 17.5616 7.74693 19.01C8.63315 19.552 9.25706 20.4855 9.25706 21.6012C9.25706 22.6407 8.70933 23.5154 7.92051 24.0747L10.3824 35.1529C10.5965 36.1162 9.86363 37.0304 8.87616 37.0304H3.46531C2.4788 37.0304 1.74592 36.1162 1.96 35.1529L4.42193 24.0747C3.63311 23.5154 3.08537 22.6407 3.08537 21.6012C3.08537 20.4546 3.73918 19.4941 4.66783 18.9618C4.73051 17.2627 5.36311 15.7111 6.39205 14.4391L1.70252 12.9984C-0.567507 12.3012 -0.567507 9.29925 1.70252 8.60205L28.6024 0.337756C30.0673 -0.112585 31.6488 -0.112585 33.1145 0.337756ZM21.0977 18.9581C21.0876 19.2223 21.0825 19.4903 21.0825 19.7621C21.0825 21.5567 21.2939 23.1753 21.7166 24.618C22.1746 26.0607 22.8086 27.3098 23.6189 28.3654C24.4643 29.3859 25.4859 30.1776 26.6836 30.7406C27.8813 31.3036 29.2551 31.5851 30.8051 31.5851C32.3198 31.5851 33.6761 31.3036 34.8738 30.7406C36.1067 30.1776 37.1283 29.3859 37.9385 28.3654C38.7839 27.3098 39.418 26.0607 39.8407 24.618C40.2987 23.1753 40.5276 21.5567 40.5276 19.7621C40.5276 19.5012 40.5228 19.2439 40.5131 18.9904L33.1136 21.2637C31.1512 21.8664 29.4752 21.5318 28.6015 21.2637L21.0977 18.9581Z" fill="#EFEAE6"/>
</svg>
