<svg width="32" height="32" viewBox="0 0 156 64" fill="none" xmlns="http://www.w3.org/2000/svg">
    <!-- Light background circle for better visibility on dark themes -->
    <rect width="156" height="64" rx="8" fill="#FFFFFF" />
    
    <!-- Original Quizzy logo with slight padding -->
    <g transform="translate(4, 4) scale(0.95)">
        <path fill-rule="evenodd" clip-rule="evenodd" d="M44.1527 0.450341L80.018 11.4694C83.046 12.4003 83.046 16.4016 80.018 17.3325L65.1175 21.9103C65.2925 23.3188 65.38 24.7986 65.38 26.3495C65.38 29.7744 64.9572 32.8709 64.1118 35.639C63.2664 38.3601 62.0687 40.7529 60.5187 42.8172C59.0157 44.8815 57.2074 46.594 55.0938 47.9545C52.9802 49.3151 50.6553 50.3004 48.1189 50.9103C48.3538 51.8486 48.8704 52.5993 49.6689 53.1623C50.4674 53.7722 51.4772 54.2648 52.6984 54.6401C53.9196 55.0155 55.3286 55.297 56.9256 55.4846C58.5695 55.6723 60.3308 55.8365 62.2096 55.9772L59.9551 64C56.2915 63.8592 53.1446 63.4839 50.5143 62.874C47.9311 62.311 45.7235 61.5134 43.8917 60.4812C42.1069 59.4491 40.6744 58.1823 39.5941 56.681C38.5608 55.1797 37.7623 53.4438 37.1987 51.4733C34.2866 51.0979 31.5859 50.3004 29.0966 49.0805C26.6072 47.8138 24.4467 46.1248 22.6149 44.0136C20.7831 41.9023 19.3505 39.3688 18.3172 36.4131C17.2839 33.4574 16.7673 30.1028 16.7673 26.3495C16.7673 24.7843 16.8597 23.2915 17.0445 21.8713L12.9895 20.6254C11.4144 21.708 10.427 23.4155 10.3292 25.3467C11.5109 26.0693 12.3428 27.3139 12.3428 28.8016C12.3428 30.1876 11.6124 31.3538 10.5607 32.0996L13.8432 46.8705C14.1287 48.155 13.1515 49.3739 11.8349 49.3739H4.62042C3.30507 49.3739 2.32789 48.155 2.61333 46.8705L5.8959 32.0996C4.84414 31.3538 4.11382 30.1876 4.11382 28.8016C4.11382 27.2728 4.98558 25.9922 6.22377 25.2824C6.30735 23.0169 7.15081 20.9481 8.52273 19.2522L2.27003 17.3312C-0.756676 16.4016 -0.756676 12.399 2.27003 11.4694L38.1366 0.450341C40.0897 -0.150114 42.1983 -0.150114 44.1527 0.450341ZM28.1304 25.2775C28.117 25.6298 28.1102 25.9872 28.1102 26.3495C28.1102 28.7423 28.392 30.9004 28.9557 32.824C29.5663 34.7476 30.4117 36.4131 31.492 37.8206C32.6192 39.1812 33.9813 40.2368 35.5783 40.9875C37.1752 41.7381 39.007 42.1135 41.0736 42.1135C43.0933 42.1135 44.9016 41.7381 46.4985 40.9875C48.1424 40.2368 49.5045 39.1812 50.5848 37.8206C51.712 36.4131 52.5575 34.7476 53.1211 32.824C53.7317 30.9004 54.037 28.7423 54.037 26.3495C54.037 26.0015 54.0305 25.6585 54.0176 25.3204L44.1514 28.3516C41.5349 29.1552 39.3002 28.709 38.1353 28.3516L28.1304 25.2775Z" fill="#173B61"/>
        <path d="M86.7035 44.352C85.7915 44.616 84.6155 44.856 83.1755 45.072C81.7355 45.312 80.2235 45.432 78.6395 45.432C77.0315 45.432 75.6875 45.216 74.6075 44.784C73.5515 44.352 72.7115 43.752 72.0875 42.984C71.4635 42.192 71.0195 41.256 70.7555 40.176C70.4915 39.096 70.3595 37.908 70.3595 36.612V26.064H75.7235V35.964C75.7235 37.692 75.9515 38.94 76.4075 39.708C76.8635 40.476 77.7155 40.86 78.9635 40.86C79.3475 40.86 79.7555 40.848 80.1875 40.824C80.6195 40.776 81.0035 40.728 81.3395 40.68V26.064H86.7035V44.352Z" fill="#173B61"/>
        <path d="M97.1028 45H91.7387V26.064H97.1028V45ZM97.6068 20.592C97.6068 21.576 97.2828 22.356 96.6348 22.932C96.0107 23.484 95.2667 23.76 94.4027 23.76C93.5387 23.76 92.7828 23.484 92.1348 22.932C91.5107 22.356 91.1988 21.576 91.1988 20.592C91.1988 19.608 91.5107 18.84 92.1348 18.288C92.7828 17.712 93.5387 17.424 94.4027 17.424C95.2667 17.424 96.0107 17.712 96.6348 18.288C97.2828 18.84 97.6068 19.608 97.6068 20.592Z" fill="#173B61"/>
        <path d="M116.365 29.664C115.933 30.144 115.345 30.792 114.601 31.608C113.881 32.424 113.101 33.324 112.261 34.308C111.421 35.292 110.569 36.324 109.705 37.404C108.865 38.484 108.097 39.528 107.401 40.536H116.545V45H100.885V41.832C101.389 40.968 101.989 40.044 102.685 39.06C103.405 38.052 104.149 37.044 104.917 36.036C105.709 35.028 106.489 34.056 107.257 33.12C108.025 32.16 108.733 31.296 109.381 30.528H101.317V26.064H116.365V29.664Z" fill="#173B61"/>
        <path d="M134.365 29.664C133.933 30.144 133.345 30.792 132.601 31.608C131.881 32.424 131.101 33.324 130.261 34.308C129.421 35.292 128.569 36.324 127.705 37.404C126.865 38.484 126.097 39.528 125.401 40.536H134.545V45H118.885V41.832C119.389 40.968 119.989 40.044 120.685 39.06C121.405 38.052 122.149 37.044 122.917 36.036C123.709 35.028 124.489 34.056 125.257 33.12C126.025 32.16 126.733 31.296 127.381 30.528H119.317V26.064H134.365V29.664Z" fill="#173B61"/>
        <path d="M155.625 26.064C154.545 29.712 153.417 33.132 152.241 36.324C151.065 39.516 149.781 42.612 148.389 45.612C147.885 46.692 147.381 47.604 146.877 48.348C146.373 49.116 145.821 49.74 145.221 50.22C144.621 50.724 143.937 51.084 143.169 51.3C142.425 51.54 141.549 51.66 140.541 51.66C139.701 51.66 138.921 51.576 138.201 51.408C137.505 51.264 136.929 51.096 136.473 50.904L137.409 46.62C137.961 46.812 138.453 46.944 138.885 47.016C139.317 47.088 139.773 47.124 140.253 47.124C141.213 47.124 141.945 46.86 142.449 46.332C142.977 45.828 143.421 45.12 143.781 44.208C142.557 41.808 141.333 39.12 140.109 36.144C138.885 33.144 137.733 29.784 136.653 26.064H142.341C142.581 27 142.857 28.02 143.169 29.124C143.505 30.204 143.853 31.308 144.213 32.436C144.573 33.54 144.933 34.62 145.293 35.676C145.677 36.732 146.037 37.692 146.373 38.556C146.685 37.692 147.009 36.732 147.345 35.676C147.681 34.62 148.005 33.54 148.317 32.436C148.653 31.308 148.965 30.204 149.253 29.124C149.565 28.02 149.841 27 150.081 26.064H155.625Z" fill="#173B61"/>
    </g>
</svg>
